<?xml version="1.0" encoding="utf-8"?>
<svg version="1.1" id="Layer_1" xmlns="http://www.w3.org/2000/svg" xmlns:xlink="http://www.w3.org/1999/xlink" x="0px" y="0px"
	 viewBox="0 0 143.7 38" style="enable-background:new 0 0 143.7 38;" xml:space="preserve">
<style type="text/css">
	.st0{fill:#1E4E9E;}
	.st1{fill:#DE2F29;}
</style>
<g>
	<g>
		<path class="st0" d="M0,0h15.7c5.9,0,12,2.2,15.7,6.9c6.5,7.9,5.3,20.9-3,27.1c-3.2,2.5-7.3,4-11.4,4H0V0z M12.2,9.9
			c0,5.9,0,11.9,0,17.8c2.7,0,6.5,0.4,8.7-2.1c2.8-3.4,2.8-8.7,0.7-12.5C19.8,9.8,16.3,9.9,12.2,9.9z"/>
	</g>
	<path class="st0" d="M32,0h9.3c1.4,0,2.7,0.8,3.3,2.2c3,5.6,5.8,11.3,8.8,16.9C56.2,13.6,59,8,62,2.4C62.6,1.1,63.8,0,65.3,0h2
		c2.5,5.4,5.2,12.1,7.4,18.5c0.3,6.6,0,12.7,0.1,19.5H63.6c-0.1-5.4,0-10.6,0-15.9c-1.7,3.1-3.2,6.3-4.9,9.4
		c-1.7,3.9-8.7,4.4-10.3,0.2C42.9,21.1,37.5,10.8,32,0z"/>
	<path class="st0" d="M69.9,0h10.6c2,0,3.4,1.8,3.9,3.8c2,5.5,4,11,6.1,16.5c2.2-5.8,4.1-11.5,6.4-17.3c0.5-1.6,2-3,3.4-3h10.8
		c-5.3,12.2-10.4,25.8-15.6,38h-10C80.1,25.8,75.2,12.2,69.9,0z"/>
	<path class="st0" d="M38,16.7c1.5,3.4,3.6,6.6,4.9,10.1c0.3,3.7,0,7.2,0.1,11.2H31.9c0-1.4,0-2.5,0-3.7
		C36.4,29.6,38.4,23.1,38,16.7z"/>
</g>
<path class="st1" d="M113.7,0l29.4,0c0,0-2,4.1-2.9,6.8c-9.7,0-19.5,0-29.2,0C111.9,4.1,112.8,1.4,113.7,0z"/>
<path class="st1" d="M109.6,9.7c9.9,0,19.7,0,29.6,0c-0.8,2.2-1.7,4.3-2.5,6.5c-9.9,0-19.8,0-29.7,0C107.9,14,108.8,11.8,109.6,9.7z
	"/>
<path class="st1" d="M105.5,19.7c10.1-0.2,20.1,0,30.2-0.1c-0.8,2.2-1.7,4.3-2.5,6.5c-10.1,0-20.1,0-30.2,0
	C103.9,24,104.7,21.8,105.5,19.7z"/>
</svg>
